ply
format ascii 1.0
comment Exported by Open CASCADE Technology [dev.opencascade.org]
comment pcb_name:comment hello_light
comment source_pcb_file:comment hello_light.ply
comment generator:comment KiCad 9.0.2
comment generated_at:comment 2025-06-16T19:22:56-0600
element vertex 504
property float x
property float y
property float z
property float nx
property float ny
property float nz
property uchar red
property uchar green
property uchar blue
element face 376
property list uchar uint vertex_indices
property uint SurfaceID
end_header
20.2967 5.61333 1.51 -0.707107 0.707107 0 178 155 0
20.2967 5.61333 1.545 -0.707107 0.707107 0 178 155 0
20.3867 5.7033 1.545 -0.707107 0.707107 0 178 155 0
20.3867 5.7033 1.51 -0.707107 0.707107 0 178 155 0
20.3867 5.7033 1.51 -0.866034 0.499985 0 178 155 0
20.3867 5.7033 1.545 -0.866034 0.499985 0 178 155 0
20.4117 5.74662 1.545 -0.866034 0.499985 0 178 155 0
20.4117 5.74662 1.51 -0.866034 0.499985 0 178 155 0
20.4117 5.74662 1.51 0.83205 0.5547 0 178 155 0
20.4117 5.74662 1.545 0.83205 0.5547 0 178 155 0
24.1681 0.112049 1.545 0.83205 0.5547 0 178 155 0
24.1681 0.112049 1.51 0.83205 0.5547 0 178 155 0
24.1681 0.112049 1.51 0.832031 0.554729 0 178 155 0
24.1681 0.112049 1.545 0.832031 0.554729 0 178 155 0
24.1867 0.0771719 1.545 0.924141 0.382051 0 178 155 0
24.1981 0.0393392 1.545 0.980855 0.19474 0 178 155 0
24.202 -1.73472e-18 1.545 1 -2.93299e-05 0 178 155 0
24.202 -1.73472e-18 1.51 1 -2.93299e-05 0 178 155 0
24.1867 0.0771719 1.51 0.924141 0.382051 0 178 155 0
24.1981 0.0393392 1.51 0.980855 0.19474 0 178 155 0
24.202 -1.73472e-18 1.51 1 0 0 178 155 0
24.202 -1.73472e-18 1.545 1 0 0 178 155 0
24.202 -5 1.545 1 0 0 178 155 0
24.202 -5 1.51 1 0 0 178 155 0
24.202 -5 1.51 1 1.41647e-07 0 178 155 0
24.202 -5 1.545 1 1.41647e-07 0 178 155 0
24.1969 -5.04495 1.545 0.974928 -0.222521 0 178 155 0
24.182 -5.08764 1.545 0.900969 -0.433884 0 178 155 0
24.1579 -5.12595 1.545 0.781832 -0.62349 0 178 155 0
24.1259 -5.15793 1.545 0.62349 -0.781832 0 178 155 0
24.0876 -5.182 1.545 0.433884 -0.900969 0 178 155 0
24.0449 -5.19694 1.545 0.222521 -0.974928 0 178 155 0
24 -5.202 1.545 -1.41647e-07 -1 -0 178 155 0
24 -5.202 1.51 -1.41647e-07 -1 -0 178 155 0
24.1969 -5.04495 1.51 0.974928 -0.222521 0 178 155 0
24.182 -5.08764 1.51 0.900969 -0.433884 0 178 155 0
24.1579 -5.12595 1.51 0.781832 -0.62349 0 178 155 0
24.1259 -5.15793 1.51 0.62349 -0.781832 0 178 155 0
24.0876 -5.182 1.51 0.433884 -0.900969 0 178 155 0
24.0449 -5.19694 1.51 0.222521 -0.974928 0 178 155 0
24 -5.202 1.51 0 -1 0 178 155 0
24 -5.202 1.545 0 -1 0 178 155 0
23.5837 -5.202 1.545 0 -1 0 178 155 0
23.5837 -5.202 1.51 0 -1 0 178 155 0
23.5837 -5.202 1.51 0.707107 -0.707107 0 178 155 0
23.5837 -5.202 1.545 0.707107 -0.707107 0 178 155 0
21.5309 -7.25479 1.545 0.707107 -0.707107 0 178 155 0
21.5309 -7.25479 1.51 0.707107 -0.707107 0 178 155 0
21.5309 -7.25479 1.51 -0.919626 -0.392795 0 178 155 0
21.5309 -7.25479 1.545 -0.919626 -0.392795 0 178 155 0
21.4612 -7.13611 1.545 -0.791122 -0.611658 0 178 155 0
21.3639 -7.03879 1.545 -0.611658 -0.791122 0 178 155 0
21.2452 -6.96911 1.545 -0.392795 -0.919626 0 178 155 0
21.2452 -6.96911 1.51 -0.392795 -0.919626 0 178 155 0
21.4612 -7.13611 1.51 -0.791122 -0.611658 0 178 155 0
21.3639 -7.03879 1.51 -0.611658 -0.791122 0 178 155 0
21.2452 -6.96911 1.51 -0.707107 0.707107 0 178 155 0
21.2452 -6.96911 1.545 -0.707107 0.707107 0 178 155 0
23.3572 -4.85716 1.545 -0.707107 0.707107 0 178 155 0
23.3572 -4.85716 1.51 -0.707107 0.707107 0 178 155 0
23.3572 -4.85716 1.51 -0.707107 0.707107 0 178 155 0
23.3572 -4.85716 1.545 -0.707107 0.707107 0 178 155 0
23.3878 -4.83204 1.545 -0.555569 0.831471 0 178 155 0
23.4227 -4.81338 1.545 -0.38268 0.923881 0 178 155 0
23.4606 -4.80188 1.545 -0.195085 0.980786 0 178 155 0
23.5 -4.798 1.545 7.21005e-06 1 0 178 155 0
23.5 -4.798 1.51 7.21005e-06 1 0 178 155 0
23.3878 -4.83204 1.51 -0.555569 0.831471 0 178 155 0
23.4227 -4.81338 1.51 -0.38268 0.923881 0 178 155 0
23.4606 -4.80188 1.51 -0.195085 0.980786 0 178 155 0
23.5 -4.798 1.51 -0 1 0 178 155 0
23.5 -4.798 1.545 -0 1 0 178 155 0
23.798 -4.798 1.545 -0 1 0 178 155 0
23.798 -4.798 1.51 -0 1 0 178 155 0
23.798 -4.798 1.51 -1 0 0 178 155 0
23.798 -4.798 1.545 -1 0 0 178 155 0
23.798 -0.06116 1.545 -1 0 0 178 155 0
23.798 -0.06116 1.51 -1 0 0 178 155 0
23.798 -0.06116 1.51 -0.83205 -0.5547 0 178 155 0
23.798 -0.06116 1.545 -0.83205 -0.5547 0 178 155 0
20.077 5.52036 1.545 -0.83205 -0.5547 0 178 155 0
20.077 5.52036 1.51 -0.83205 -0.5547 0 178 155 0
20.077 5.52036 1.51 -0.258813 0.965927 0 178 155 0
20.077 5.52036 1.545 -0.258813 0.965927 0 178 155 0
20.1865 5.54971 1.545 -0.258813 0.965927 0 178 155 0
20.1865 5.54971 1.51 -0.258813 0.965927 0 178 155 0
20.1865 5.54971 1.51 -0.499997 0.866027 0 178 155 0
20.1865 5.54971 1.545 -0.499997 0.866027 0 178 155 0
20.2967 5.61333 1.545 -0.499997 0.866027 0 178 155 0
20.2967 5.61333 1.51 -0.499997 0.866027 0 178 155 0
20.1865 5.54971 1.51 -0 -0 -1 178 155 0
20.2967 5.61333 1.51 -0 -0 -1 178 155 0
20.077 5.52036 1.51 -0 -0 -1 178 155 0
23.798 -0.06116 1.51 -0 -0 -1 178 155 0
23.798 -4.798 1.51 -0 -0 -1 178 155 0
23.5 -4.798 1.51 -0 -0 -1 178 155 0
23.3572 -4.85716 1.51 -0 -0 -1 178 155 0
23.3878 -4.83204 1.51 -0 -0 -1 178 155 0
23.4227 -4.81338 1.51 -0 -0 -1 178 155 0
23.4606 -4.80188 1.51 -0 -0 -1 178 155 0
21.2452 -6.96911 1.51 -0 -0 -1 178 155 0
21.5309 -7.25479 1.51 -0 -0 -1 178 155 0
21.4612 -7.13611 1.51 -0 -0 -1 178 155 0
21.3639 -7.03879 1.51 -0 -0 -1 178 155 0
23.5837 -5.202 1.51 -0 -0 -1 178 155 0
24 -5.202 1.51 -0 -0 -1 178 155 0
24.202 -5 1.51 -0 -0 -1 178 155 0
24.1969 -5.04495 1.51 -0 -0 -1 178 155 0
24.182 -5.08764 1.51 -0 -0 -1 178 155 0
24.1579 -5.12595 1.51 -0 -0 -1 178 155 0
24.1259 -5.15793 1.51 -0 -0 -1 178 155 0
24.0876 -5.182 1.51 -0 -0 -1 178 155 0
24.0449 -5.19694 1.51 -0 -0 -1 178 155 0
24.202 -1.73472e-18 1.51 -0 -0 -1 178 155 0
24.1681 0.112049 1.51 -0 -0 -1 178 155 0
24.1867 0.0771719 1.51 -0 -0 -1 178 155 0
24.1981 0.0393392 1.51 -0 -0 -1 178 155 0
20.4117 5.74662 1.51 -0 -0 -1 178 155 0
20.3867 5.7033 1.51 -0 -0 -1 178 155 0
20.1865 5.54971 1.545 0 0 1 178 155 0
20.2967 5.61333 1.545 0 0 1 178 155 0
20.077 5.52036 1.545 0 0 1 178 155 0
23.798 -0.06116 1.545 0 0 1 178 155 0
23.798 -4.798 1.545 0 0 1 178 155 0
23.5 -4.798 1.545 0 0 1 178 155 0
23.3572 -4.85716 1.545 0 0 1 178 155 0
23.3878 -4.83204 1.545 0 0 1 178 155 0
23.4227 -4.81338 1.545 0 0 1 178 155 0
23.4606 -4.80188 1.545 0 0 1 178 155 0
21.2452 -6.96911 1.545 0 0 1 178 155 0
21.5309 -7.25479 1.545 0 0 1 178 155 0
21.4612 -7.13611 1.545 0 0 1 178 155 0
21.3639 -7.03879 1.545 0 0 1 178 155 0
23.5837 -5.202 1.545 0 0 1 178 155 0
24 -5.202 1.545 0 0 1 178 155 0
24.202 -5 1.545 0 0 1 178 155 0
24.1969 -5.04495 1.545 0 0 1 178 155 0
24.182 -5.08764 1.545 0 0 1 178 155 0
24.1579 -5.12595 1.545 0 0 1 178 155 0
24.1259 -5.15793 1.545 0 0 1 178 155 0
24.0876 -5.182 1.545 0 0 1 178 155 0
24.0449 -5.19694 1.545 0 0 1 178 155 0
24.202 -1.73472e-18 1.545 0 0 1 178 155 0
24.1681 0.112049 1.545 0 0 1 178 155 0
24.1867 0.0771719 1.545 0 0 1 178 155 0
24.1981 0.0393392 1.545 0 0 1 178 155 0
20.4117 5.74662 1.545 0 0 1 178 155 0
20.3867 5.7033 1.545 0 0 1 178 155 0
3.85717 -7.35716 1.51 -0.707107 0.707107 0 178 155 0
3.85717 -7.35716 1.545 -0.707107 0.707107 0 178 155 0
3.88778 -7.33204 1.545 -0.55557 0.83147 0 178 155 0
3.9227 -7.31338 1.545 -0.382682 0.92388 0 178 155 0
3.96059 -7.30188 1.545 -0.195089 0.980786 0 178 155 0
4 -7.298 1.545 2.25959e-06 1 0 178 155 0
4 -7.298 1.51 2.25959e-06 1 0 178 155 0
3.88778 -7.33204 1.51 -0.55557 0.83147 0 178 155 0
3.9227 -7.31338 1.51 -0.382682 0.92388 0 178 155 0
3.96059 -7.30188 1.51 -0.195089 0.980786 0 178 155 0
4 -7.298 1.51 -0 1 0 178 155 0
4 -7.298 1.545 -0 1 0 178 155 0
16.9512 -7.298 1.545 -0 1 0 178 155 0
16.9512 -7.298 1.51 -0 1 0 178 155 0
16.9512 -7.298 1.51 0.928021 -0.372527 0 178 155 0
16.9512 -7.298 1.545 0.928021 -0.372527 0 178 155 0
16.9166 -7.43119 1.545 0.991915 -0.1269 0 178 155 0
16.9166 -7.56881 1.545 0.991915 0.1269 -0 178 155 0
16.9512 -7.702 1.545 0.928021 0.372527 -0 178 155 0
16.9512 -7.702 1.51 0.928021 0.372527 -0 178 155 0
16.9166 -7.43119 1.51 0.991915 -0.1269 0 178 155 0
16.9166 -7.56881 1.51 0.991915 0.1269 -0 178 155 0
16.9512 -7.702 1.51 0 -1 0 178 155 0
16.9512 -7.702 1.545 0 -1 0 178 155 0
4.08367 -7.702 1.545 0 -1 0 178 155 0
4.08367 -7.702 1.51 0 -1 0 178 155 0
4.08367 -7.702 1.51 0.707108 -0.707106 0 178 155 0
4.08367 -7.702 1.545 0.707108 -0.707106 0 178 155 0
3.64284 -8.14284 1.545 0.707108 -0.707106 0 178 155 0
3.64284 -8.14284 1.51 0.707108 -0.707106 0 178 155 0
3.64284 -8.14284 1.51 0.707107 -0.707107 0 178 155 0
3.64284 -8.14284 1.545 0.707107 -0.707107 0 178 155 0
3.61223 -8.16796 1.545 0.555569 -0.831471 0 178 155 0
3.5773 -8.18662 1.545 0.38268 -0.923881 0 178 155 0
3.53941 -8.19812 1.545 0.195085 -0.980786 0 178 155 0
3.5 -8.202 1.545 -7.21005e-06 -1 -0 178 155 0
3.5 -8.202 1.51 -7.21005e-06 -1 -0 178 155 0
3.61223 -8.16796 1.51 0.555569 -0.831471 0 178 155 0
3.5773 -8.18662 1.51 0.38268 -0.923881 0 178 155 0
3.53941 -8.19812 1.51 0.195085 -0.980786 0 178 155 0
3.5 -8.202 1.51 0 -1 0 178 155 0
3.5 -8.202 1.545 0 -1 0 178 155 0
-17.6159 -8.202 1.545 0 -1 0 178 155 0
-17.6159 -8.202 1.51 0 -1 0 178 155 0
-17.6159 -8.202 1.51 -0.866027 0.499997 0 178 155 0
-17.6159 -8.202 1.545 -0.866027 0.499997 0 178 155 0
-17.5959 -8.16738 1.545 -0.866027 0.499997 0 178 155 0
-17.5959 -8.16738 1.51 -0.866027 0.499997 0 178 155 0
-17.5959 -8.16738 1.51 -0.923878 0.382687 0 178 155 0
-17.5959 -8.16738 1.545 -0.923878 0.382687 0 178 155 0
-17.571 -8.08533 1.545 -0.980785 0.195092 0 178 155 0
-17.5626 -8 1.545 -1 0 0 178 155 0
-17.571 -7.91467 1.545 -0.980785 -0.195092 0 178 155 0
-17.5959 -7.83262 1.545 -0.923878 -0.382687 0 178 155 0
-17.5959 -7.83262 1.51 -0.923878 -0.382687 0 178 155 0
-17.571 -8.08533 1.51 -0.980785 0.195092 0 178 155 0
-17.5626 -8 1.51 -1 0 0 178 155 0
-17.571 -7.91467 1.51 -0.980785 -0.195092 0 178 155 0
-17.5959 -7.83262 1.51 -0.866021 -0.500008 0 178 155 0
-17.5959 -7.83262 1.545 -0.866021 -0.500008 0 178 155 0
-17.6159 -7.798 1.545 -0.866021 -0.500008 0 178 155 0
-17.6159 -7.798 1.51 -0.866021 -0.500008 0 178 155 0
-17.6159 -7.798 1.51 -0 1 0 178 155 0
-17.6159 -7.798 1.545 -0 1 0 178 155 0
3.41633 -7.798 1.545 -0 1 0 178 155 0
3.41633 -7.798 1.51 -0 1 0 178 155 0
3.41633 -7.798 1.51 -0.707106 0.707108 0 178 155 0
3.41633 -7.798 1.545 -0.707106 0.707108 0 178 155 0
3.85717 -7.35716 1.545 -0.707106 0.707108 0 178 155 0
3.85717 -7.35716 1.51 -0.707106 0.707108 0 178 155 0
3.41633 -7.798 1.51 -0 -0 -1 178 155 0
3.85717 -7.35716 1.51 -0 -0 -1 178 155 0
-17.6159 -7.798 1.51 -0 -0 -1 178 155 0
-17.5959 -7.83262 1.51 -0 -0 -1 178 155 0
-17.5959 -8.16738 1.51 -0 -0 -1 178 155 0
-17.571 -8.08533 1.51 -0 -0 -1 178 155 0
-17.5626 -8 1.51 -0 -0 -1 178 155 0
-17.571 -7.91467 1.51 -0 -0 -1 178 155 0
-17.6159 -8.202 1.51 -0 -0 -1 178 155 0
3.5 -8.202 1.51 -0 -0 -1 178 155 0
3.64284 -8.14284 1.51 -0 -0 -1 178 155 0
3.61223 -8.16796 1.51 -0 -0 -1 178 155 0
3.5773 -8.18662 1.51 -0 -0 -1 178 155 0
3.53941 -8.19812 1.51 -0 -0 -1 178 155 0
4.08367 -7.702 1.51 -0 -0 -1 178 155 0
16.9512 -7.702 1.51 -0 -0 -1 178 155 0
16.9512 -7.298 1.51 -0 -0 -1 178 155 0
16.9166 -7.43119 1.51 -0 -0 -1 178 155 0
16.9166 -7.56881 1.51 -0 -0 -1 178 155 0
4 -7.298 1.51 -0 -0 -1 178 155 0
3.88778 -7.33204 1.51 -0 -0 -1 178 155 0
3.9227 -7.31338 1.51 -0 -0 -1 178 155 0
3.96059 -7.30188 1.51 -0 -0 -1 178 155 0
3.41633 -7.798 1.545 0 0 1 178 155 0
3.85717 -7.35716 1.545 0 0 1 178 155 0
-17.6159 -7.798 1.545 0 0 1 178 155 0
-17.5959 -7.83262 1.545 0 0 1 178 155 0
-17.5959 -8.16738 1.545 0 0 1 178 155 0
-17.571 -8.08533 1.545 0 0 1 178 155 0
-17.5626 -8 1.545 0 0 1 178 155 0
-17.571 -7.91467 1.545 0 0 1 178 155 0
-17.6159 -8.202 1.545 0 0 1 178 155 0
3.5 -8.202 1.545 0 0 1 178 155 0
3.64284 -8.14284 1.545 0 0 1 178 155 0
3.61223 -8.16796 1.545 0 0 1 178 155 0
3.5773 -8.18662 1.545 0 0 1 178 155 0
3.53941 -8.19812 1.545 0 0 1 178 155 0
4.08367 -7.702 1.545 0 0 1 178 155 0
16.9512 -7.702 1.545 0 0 1 178 155 0
16.9512 -7.298 1.545 0 0 1 178 155 0
16.9166 -7.43119 1.545 0 0 1 178 155 0
16.9166 -7.56881 1.545 0 0 1 178 155 0
4 -7.298 1.545 0 0 1 178 155 0
3.88778 -7.33204 1.545 0 0 1 178 155 0
3.9227 -7.31338 1.545 0 0 1 178 155 0
3.96059 -7.30188 1.545 0 0 1 178 155 0
-20.742 7.16 1.51 -1 -9.27058e-06 -0 178 155 0
-20.742 7.16 1.545 -1 -9.27058e-06 -0 178 155 0
-20.7381 7.19941 1.545 -0.980787 0.195084 0 178 155 0
-20.7266 7.2373 1.545 -0.923881 0.38268 0 178 155 0
-20.708 7.27223 1.545 -0.83147 0.55557 0 178 155 0
-20.6828 7.30284 1.545 -0.707105 0.707108 0 178 155 0
-20.6828 7.30284 1.51 -0.707105 0.707108 0 178 155 0
-20.7381 7.19941 1.51 -0.980787 0.195084 0 178 155 0
-20.7266 7.2373 1.51 -0.923881 0.38268 0 178 155 0
-20.708 7.27223 1.51 -0.83147 0.55557 0 178 155 0
-20.6828 7.30284 1.51 -0.707107 0.707107 0 178 155 0
-20.6828 7.30284 1.545 -0.707107 0.707107 0 178 155 0
-18.074 9.9117 1.545 -0.707107 0.707107 0 178 155 0
-18.074 9.9117 1.51 -0.707107 0.707107 0 178 155 0
-18.074 9.9117 1.51 0.965926 0.258818 0 178 155 0
-18.074 9.9117 1.545 0.965926 0.258818 0 178 155 0
-18.0579 9.85175 1.545 0.965926 0.258818 0 178 155 0
-18.0579 9.85175 1.51 0.965926 0.258818 0 178 155 0
-18.0579 9.85175 1.51 0.92388 0.382681 -0 178 155 0
-18.0579 9.85175 1.545 0.92388 0.382681 -0 178 155 0
-18.0221 9.78478 1.545 0.83147 0.555569 -0 178 155 0
-17.9739 9.72607 1.545 0.707107 0.707107 -0 178 155 0
-17.9152 9.6779 1.545 0.555569 0.83147 -0 178 155 0
-17.8482 9.6421 1.545 0.382681 0.92388 -0 178 155 0
-17.8482 9.6421 1.51 0.382681 0.92388 -0 178 155 0
-18.0221 9.78478 1.51 0.83147 0.555569 -0 178 155 0
-17.9739 9.72607 1.51 0.707107 0.707107 -0 178 155 0
-17.9152 9.6779 1.51 0.555569 0.83147 -0 178 155 0
-17.8482 9.6421 1.51 0.258818 0.965926 0 178 155 0
-17.8482 9.6421 1.545 0.258818 0.965926 0 178 155 0
-17.7883 9.62603 1.545 0.258818 0.965926 0 178 155 0
-17.7883 9.62603 1.51 0.258818 0.965926 0 178 155 0
-17.7883 9.62603 1.51 0.707107 -0.707107 0 178 155 0
-17.7883 9.62603 1.545 0.707107 -0.707107 0 178 155 0
-20.338 7.07633 1.545 0.707107 -0.707107 0 178 155 0
-20.338 7.07633 1.51 0.707107 -0.707107 0 178 155 0
-20.338 7.07633 1.51 1 0 0 178 155 0
-20.338 7.07633 1.545 1 0 0 178 155 0
-20.338 -7.61589 1.545 1 0 0 178 155 0
-20.338 -7.61589 1.51 1 0 0 178 155 0
-20.338 -7.61589 1.51 -0.499997 -0.866027 0 178 155 0
-20.338 -7.61589 1.545 -0.499997 -0.866027 0 178 155 0
-20.3726 -7.5959 1.545 -0.499997 -0.866027 0 178 155 0
-20.3726 -7.5959 1.51 -0.499997 -0.866027 0 178 155 0
-20.3726 -7.5959 1.51 -0.383547 -0.923521 0 178 155 0
-20.3726 -7.5959 1.545 -0.383547 -0.923521 0 178 155 0
-20.4547 -7.57095 1.545 -0.195549 -0.980694 0 178 155 0
-20.54 -7.56253 1.545 7.56839e-15 -1 0 178 155 0
-20.6253 -7.57095 1.545 0.195549 -0.980694 0 178 155 0
-20.7074 -7.5959 1.545 0.383547 -0.923521 0 178 155 0
-20.7074 -7.5959 1.51 0.383547 -0.923521 0 178 155 0
-20.4547 -7.57095 1.51 -0.195549 -0.980694 0 178 155 0
-20.54 -7.56253 1.51 7.56839e-15 -1 0 178 155 0
-20.6253 -7.57095 1.51 0.195549 -0.980694 0 178 155 0
-20.7074 -7.5959 1.51 0.49999 -0.866031 0 178 155 0
-20.7074 -7.5959 1.545 0.49999 -0.866031 0 178 155 0
-20.742 -7.61589 1.545 0.49999 -0.866031 0 178 155 0
-20.742 -7.61589 1.51 0.49999 -0.866031 0 178 155 0
-20.742 -7.61589 1.51 -1 0 0 178 155 0
-20.742 -7.61589 1.545 -1 0 0 178 155 0
-20.742 7.16 1.545 -1 0 0 178 155 0
-20.742 7.16 1.51 -1 0 0 178 155 0
-20.742 -7.61589 1.51 -0 -0 -1 178 155 0
-20.742 7.16 1.51 -0 -0 -1 178 155 0
-20.7074 -7.5959 1.51 -0 -0 -1 178 155 0
-20.3726 -7.5959 1.51 -0 -0 -1 178 155 0
-20.4547 -7.57095 1.51 -0 -0 -1 178 155 0
-20.54 -7.56253 1.51 -0 -0 -1 178 155 0
-20.6253 -7.57095 1.51 -0 -0 -1 178 155 0
-20.338 -7.61589 1.51 -0 -0 -1 178 155 0
-20.338 7.07633 1.51 -0 -0 -1 178 155 0
-17.7883 9.62603 1.51 -0 -0 -1 178 155 0
-17.8482 9.6421 1.51 -0 -0 -1 178 155 0
-18.0579 9.85175 1.51 -0 -0 -1 178 155 0
-18.0221 9.78478 1.51 -0 -0 -1 178 155 0
-17.9739 9.72607 1.51 -0 -0 -1 178 155 0
-17.9152 9.6779 1.51 -0 -0 -1 178 155 0
-18.074 9.9117 1.51 -0 -0 -1 178 155 0
-20.6828 7.30284 1.51 -0 -0 -1 178 155 0
-20.7381 7.19941 1.51 -0 -0 -1 178 155 0
-20.7266 7.2373 1.51 -0 -0 -1 178 155 0
-20.708 7.27223 1.51 -0 -0 -1 178 155 0
-20.742 -7.61589 1.545 0 0 1 178 155 0
-20.742 7.16 1.545 0 0 1 178 155 0
-20.7074 -7.5959 1.545 0 0 1 178 155 0
-20.3726 -7.5959 1.545 0 0 1 178 155 0
-20.4547 -7.57095 1.545 0 0 1 178 155 0
-20.54 -7.56253 1.545 0 0 1 178 155 0
-20.6253 -7.57095 1.545 0 0 1 178 155 0
-20.338 -7.61589 1.545 0 0 1 178 155 0
-20.338 7.07633 1.545 0 0 1 178 155 0
-17.7883 9.62603 1.545 0 0 1 178 155 0
-17.8482 9.6421 1.545 0 0 1 178 155 0
-18.0579 9.85175 1.545 0 0 1 178 155 0
-18.0221 9.78478 1.545 0 0 1 178 155 0
-17.9739 9.72607 1.545 0 0 1 178 155 0
-17.9152 9.6779 1.545 0 0 1 178 155 0
-18.074 9.9117 1.545 0 0 1 178 155 0
-20.6828 7.30284 1.545 0 0 1 178 155 0
-20.7381 7.19941 1.545 0 0 1 178 155 0
-20.7266 7.2373 1.545 0 0 1 178 155 0
-20.708 7.27223 1.545 0 0 1 178 155 0
7.91633 6.202 1.51 -0.70676 0.707453 0 178 155 0
7.91633 6.202 1.545 -0.70676 0.707453 0 178 155 0
11.8826 10.1644 1.545 -0.70676 0.707453 0 178 155 0
11.8826 10.1644 1.51 -0.70676 0.707453 0 178 155 0
11.8826 10.1644 1.51 -0.581238 0.813733 0 178 155 0
11.8826 10.1644 1.545 -0.581238 0.813733 0 178 155 0
15.0243 12.4084 1.545 -0.581238 0.813733 0 178 155 0
15.0243 12.4084 1.51 -0.581238 0.813733 0 178 155 0
15.0243 12.4084 1.51 0.965926 0.258819 0 178 155 0
15.0243 12.4084 1.545 0.965926 0.258819 0 178 155 0
15.0497 12.3135 1.545 0.965926 0.258819 0 178 155 0
15.0497 12.3135 1.51 0.965926 0.258819 0 178 155 0
15.0497 12.3135 1.51 0.866027 0.499997 0 178 155 0
15.0497 12.3135 1.545 0.866027 0.499997 0 178 155 0
15.1133 12.2033 1.545 0.866027 0.499997 0 178 155 0
15.1133 12.2033 1.51 0.866027 0.499997 0 178 155 0
15.1133 12.2033 1.51 0.707107 0.707107 0 178 155 0
15.1133 12.2033 1.545 0.707107 0.707107 0 178 155 0
15.2033 12.1133 1.545 0.707107 0.707107 0 178 155 0
15.2033 12.1133 1.51 0.707107 0.707107 0 178 155 0
15.2033 12.1133 1.51 0.499991 0.866031 0 178 155 0
15.2033 12.1133 1.545 0.499991 0.866031 0 178 155 0
15.2602 12.0805 1.545 0.499991 0.866031 0 178 155 0
15.2602 12.0805 1.51 0.499991 0.866031 0 178 155 0
15.2602 12.0805 1.51 0.581238 -0.813733 0 178 155 0
15.2602 12.0805 1.545 0.581238 -0.813733 0 178 155 0
12.131 9.84534 1.545 0.581238 -0.813733 0 178 155 0
12.131 9.84534 1.51 0.581238 -0.813733 0 178 155 0
12.131 9.84534 1.51 0.707107 -0.707107 0 178 155 0
12.131 9.84534 1.545 0.707107 -0.707107 0 178 155 0
8.14284 5.85716 1.545 0.707107 -0.707107 0 178 155 0
8.14284 5.85716 1.51 0.707107 -0.707107 0 178 155 0
8.14284 5.85716 1.51 0.707107 -0.707107 0 178 155 0
8.14284 5.85716 1.545 0.707107 -0.707107 0 178 155 0
8.11223 5.83204 1.545 0.555569 -0.831471 0 178 155 0
8.0773 5.81338 1.545 0.38268 -0.923881 0 178 155 0
8.03941 5.80188 1.545 0.195085 -0.980786 0 178 155 0
8 5.798 1.545 -7.21005e-06 -1 -0 178 155 0
8 5.798 1.51 -7.21005e-06 -1 -0 178 155 0
8.11223 5.83204 1.51 0.555569 -0.831471 0 178 155 0
8.0773 5.81338 1.51 0.38268 -0.923881 0 178 155 0
8.03941 5.80188 1.51 0.195085 -0.980786 0 178 155 0
8 5.798 1.51 0 -1 0 178 155 0
8 5.798 1.545 0 -1 0 178 155 0
-1 5.798 1.545 0 -1 0 178 155 0
-1 5.798 1.51 0 -1 0 178 155 0
-1 5.798 1.51 1.08149e-05 -1 0 178 155 0
-1 5.798 1.545 1.08149e-05 -1 0 178 155 0
-1.03941 5.80188 1.545 -0.195086 -0.980786 -0 178 155 0
-1.0773 5.81338 1.545 -0.382686 -0.923879 -0 178 155 0
-1.11223 5.83204 1.545 -0.555578 -0.831465 -0 178 155 0
-1.14284 5.85716 1.545 -0.707118 -0.707096 -0 178 155 0
-1.14284 5.85716 1.51 -0.707118 -0.707096 -0 178 155 0
-1.03941 5.80188 1.51 -0.195086 -0.980786 -0 178 155 0
-1.0773 5.81338 1.51 -0.382686 -0.923879 -0 178 155 0
-1.11223 5.83204 1.51 -0.555578 -0.831465 -0 178 155 0
-1.14284 5.85716 1.51 -0.707107 -0.707107 0 178 155 0
-1.14284 5.85716 1.545 -0.707107 -0.707107 0 178 155 0
-4.91171 9.62603 1.545 -0.707107 -0.707107 0 178 155 0
-4.91171 9.62603 1.51 -0.707107 -0.707107 0 178 155 0
-4.91171 9.62603 1.51 -0.258814 0.965927 0 178 155 0
-4.91171 9.62603 1.545 -0.258814 0.965927 0 178 155 0
-4.85175 9.6421 1.545 -0.258814 0.965927 0 178 155 0
-4.85175 9.6421 1.51 -0.258814 0.965927 0 178 155 0
-4.85175 9.6421 1.51 -0.382681 0.92388 0 178 155 0
-4.85175 9.6421 1.545 -0.382681 0.92388 0 178 155 0
-4.78478 9.6779 1.545 -0.555569 0.83147 0 178 155 0
-4.72607 9.72607 1.545 -0.707107 0.707107 0 178 155 0
-4.6779 9.78478 1.545 -0.83147 0.555569 0 178 155 0
-4.6421 9.85175 1.545 -0.92388 0.382681 0 178 155 0
-4.6421 9.85175 1.51 -0.92388 0.382681 0 178 155 0
-4.78478 9.6779 1.51 -0.555569 0.83147 0 178 155 0
-4.72607 9.72607 1.51 -0.707107 0.707107 0 178 155 0
-4.6779 9.78478 1.51 -0.83147 0.555569 0 178 155 0
-4.6421 9.85175 1.51 -0.965927 0.258814 0 178 155 0
-4.6421 9.85175 1.545 -0.965927 0.258814 0 178 155 0
-4.62603 9.91171 1.545 -0.965927 0.258814 0 178 155 0
-4.62603 9.91171 1.51 -0.965927 0.258814 0 178 155 0
-4.62603 9.91171 1.51 0.707107 0.707107 0 178 155 0
-4.62603 9.91171 1.545 0.707107 0.707107 0 178 155 0
-0.916329 6.202 1.545 0.707107 0.707107 0 178 155 0
-0.916329 6.202 1.51 0.707107 0.707107 0 178 155 0
-0.916329 6.202 1.51 -0 1 0 178 155 0
-0.916329 6.202 1.545 -0 1 0 178 155 0
7.91633 6.202 1.545 -0 1 0 178 155 0
7.91633 6.202 1.51 -0 1 0 178 155 0
-0.916329 6.202 1.51 -0 -0 -1 178 155 0
7.91633 6.202 1.51 -0 -0 -1 178 155 0
-4.62603 9.91171 1.51 -0 -0 -1 178 155 0
-4.6421 9.85175 1.51 -0 -0 -1 178 155 0
-4.85175 9.6421 1.51 -0 -0 -1 178 155 0
-4.78478 9.6779 1.51 -0 -0 -1 178 155 0
-4.72607 9.72607 1.51 -0 -0 -1 178 155 0
-4.6779 9.78478 1.51 -0 -0 -1 178 155 0
-4.91171 9.62603 1.51 -0 -0 -1 178 155 0
-1.14284 5.85716 1.51 -0 -0 -1 178 155 0
-1 5.798 1.51 -0 -0 -1 178 155 0
-1.03941 5.80188 1.51 -0 -0 -1 178 155 0
-1.0773 5.81338 1.51 -0 -0 -1 178 155 0
-1.11223 5.83204 1.51 -0 -0 -1 178 155 0
8 5.798 1.51 -0 -0 -1 178 155 0
8.14284 5.85716 1.51 -0 -0 -1 178 155 0
8.11223 5.83204 1.51 -0 -0 -1 178 155 0
8.0773 5.81338 1.51 -0 -0 -1 178 155 0
8.03941 5.80188 1.51 -0 -0 -1 178 155 0
12.131 9.84534 1.51 -0 -0 -1 178 155 0
15.2602 12.0805 1.51 -0 -0 -1 178 155 0
15.2033 12.1133 1.51 -0 -0 -1 178 155 0
15.1133 12.2033 1.51 -0 -0 -1 178 155 0
15.0497 12.3135 1.51 -0 -0 -1 178 155 0
15.0243 12.4084 1.51 -0 -0 -1 178 155 0
11.8826 10.1644 1.51 -0 -0 -1 178 155 0
-0.916329 6.202 1.545 0 0 1 178 155 0
7.91633 6.202 1.545 0 0 1 178 155 0
-4.62603 9.91171 1.545 0 0 1 178 155 0
-4.6421 9.85175 1.545 0 0 1 178 155 0
-4.85175 9.6421 1.545 0 0 1 178 155 0
-4.78478 9.6779 1.545 0 0 1 178 155 0
-4.72607 9.72607 1.545 0 0 1 178 155 0
-4.6779 9.78478 1.545 0 0 1 178 155 0
-4.91171 9.62603 1.545 0 0 1 178 155 0
-1.14284 5.85716 1.545 0 0 1 178 155 0
-1 5.798 1.545 0 0 1 178 155 0
-1.03941 5.80188 1.545 0 0 1 178 155 0
-1.0773 5.81338 1.545 0 0 1 178 155 0
-1.11223 5.83204 1.545 0 0 1 178 155 0
8 5.798 1.545 0 0 1 178 155 0
8.14284 5.85716 1.545 0 0 1 178 155 0
8.11223 5.83204 1.545 0 0 1 178 155 0
8.0773 5.81338 1.545 0 0 1 178 155 0
8.03941 5.80188 1.545 0 0 1 178 155 0
12.131 9.84534 1.545 0 0 1 178 155 0
15.2602 12.0805 1.545 0 0 1 178 155 0
15.2033 12.1133 1.545 0 0 1 178 155 0
15.1133 12.2033 1.545 0 0 1 178 155 0
15.0497 12.3135 1.545 0 0 1 178 155 0
15.0243 12.4084 1.545 0 0 1 178 155 0
11.8826 10.1644 1.545 0 0 1 178 155 0
3 3 0 1 1
3 3 1 2 1
3 7 4 5 2
3 7 5 6 2
3 11 8 9 3
3 11 9 10 3
3 18 12 13 4
3 18 13 14 4
3 19 14 15 4
3 19 18 14 4
3 17 15 16 4
3 17 19 15 4
3 23 20 21 5
3 23 21 22 5
3 34 24 25 6
3 34 25 26 6
3 35 26 27 6
3 35 34 26 6
3 36 27 28 6
3 36 35 27 6
3 37 28 29 6
3 37 36 28 6
3 38 29 30 6
3 38 37 29 6
3 39 30 31 6
3 39 38 30 6
3 33 31 32 6
3 33 39 31 6
3 43 40 41 7
3 43 41 42 7
3 47 44 45 8
3 47 45 46 8
3 54 48 49 9
3 54 49 50 9
3 55 50 51 9
3 55 54 50 9
3 53 51 52 9
3 53 55 51 9
3 59 56 57 10
3 59 57 58 10
3 67 60 61 11
3 67 61 62 11
3 68 62 63 11
3 68 67 62 11
3 69 63 64 11
3 69 68 63 11
3 66 64 65 11
3 66 69 64 11
3 73 70 71 12
3 73 71 72 12
3 77 74 75 13
3 77 75 76 13
3 81 78 79 14
3 81 79 80 14
3 85 82 83 15
3 85 83 84 15
3 89 86 87 16
3 89 87 88 16
3 104 101 102 17
3 104 102 103 17
3 96 103 100 17
3 96 104 103 17
3 98 96 97 17
3 95 98 99 17
3 95 96 98 17
3 95 104 96 17
3 110 111 112 17
3 94 105 104 17
3 94 104 95 17
3 108 109 110 17
3 108 112 105 17
3 108 110 112 17
3 106 107 108 17
3 106 105 94 17
3 106 108 105 17
3 113 94 93 17
3 113 106 94 17
3 114 115 116 17
3 114 116 113 17
3 114 113 93 17
3 90 93 92 17
3 91 114 93 17
3 91 93 90 17
3 118 114 91 17
3 117 114 118 17
3 133 131 130 18
3 133 132 131 18
3 125 129 132 18
3 125 132 133 18
3 127 126 125 18
3 124 128 127 18
3 124 127 125 18
3 124 125 133 18
3 139 141 140 18
3 123 133 134 18
3 123 124 133 18
3 137 139 138 18
3 137 134 141 18
3 137 141 139 18
3 135 137 136 18
3 135 123 134 18
3 135 134 137 18
3 142 122 123 18
3 142 123 135 18
3 143 145 144 18
3 143 142 145 18
3 143 122 142 18
3 119 121 122 18
3 120 122 143 18
3 120 119 122 18
3 147 120 143 18
3 146 147 143 18
3 155 148 149 19
3 155 149 150 19
3 156 150 151 19
3 156 155 150 19
3 157 151 152 19
3 157 156 151 19
3 154 152 153 19
3 154 157 152 19
3 161 158 159 20
3 161 159 160 20
3 168 162 163 21
3 168 163 164 21
3 169 164 165 21
3 169 168 164 21
3 167 165 166 21
3 167 169 165 21
3 173 170 171 22
3 173 171 172 22
3 177 174 175 23
3 177 175 176 23
3 185 178 179 24
3 185 179 180 24
3 186 180 181 24
3 186 185 180 24
3 187 181 182 24
3 187 186 181 24
3 184 182 183 24
3 184 187 182 24
3 191 188 189 25
3 191 189 190 25
3 195 192 193 26
3 195 193 194 26
3 203 196 197 27
3 203 197 198 27
3 204 198 199 27
3 204 203 198 27
3 205 199 200 27
3 205 204 199 27
3 202 200 201 27
3 202 205 200 27
3 209 206 207 28
3 209 207 208 28
3 213 210 211 29
3 213 211 212 29
3 217 214 215 30
3 217 215 216 30
3 227 222 223 31
3 227 226 222 31
3 230 231 227 31
3 229 230 227 31
3 228 229 227 31
3 218 221 220 31
3 218 223 224 31
3 218 224 225 31
3 218 225 221 31
3 218 227 223 31
3 218 228 227 31
3 232 228 218 31
3 219 232 218 31
3 239 219 238 31
3 240 219 239 31
3 237 232 219 31
3 237 219 240 31
3 236 233 232 31
3 235 232 237 31
3 235 236 232 31
3 234 235 237 31
3 250 246 245 32
3 250 245 249 32
3 253 250 254 32
3 252 250 253 32
3 251 250 252 32
3 241 243 244 32
3 241 247 246 32
3 241 248 247 32
3 241 244 248 32
3 241 246 250 32
3 241 250 251 32
3 255 241 251 32
3 242 241 255 32
3 262 261 242 32
3 263 262 242 32
3 260 242 255 32
3 260 263 242 32
3 259 255 256 32
3 258 260 255 32
3 258 255 259 32
3 257 260 258 32
3 271 264 265 33
3 271 265 266 33
3 272 266 267 33
3 272 271 266 33
3 273 267 268 33
3 273 272 267 33
3 270 268 269 33
3 270 273 268 33
3 277 274 275 34
3 277 275 276 34
3 281 278 279 35
3 281 279 280 35
3 289 282 283 36
3 289 283 284 36
3 290 284 285 36
3 290 289 284 36
3 291 285 286 36
3 291 290 285 36
3 288 286 287 36
3 288 291 286 36
3 295 292 293 37
3 295 293 294 37
3 299 296 297 38
3 299 297 298 38
3 303 300 301 39
3 303 301 302 39
3 307 304 305 40
3 307 305 306 40
3 315 308 309 41
3 315 309 310 41
3 316 310 311 41
3 316 315 310 41
3 317 311 312 41
3 317 316 311 41
3 314 312 313 41
3 314 317 312 41
3 321 318 319 42
3 321 319 320 42
3 325 322 323 43
3 325 323 324 43
3 327 328 326 44
3 327 332 328 44
3 344 327 343 44
3 345 327 344 44
3 342 327 345 44
3 334 329 330 44
3 334 330 331 44
3 334 331 332 44
3 334 333 329 44
3 334 332 327 44
3 334 327 342 44
3 340 334 339 44
3 338 339 334 44
3 338 334 342 44
3 337 338 342 44
3 336 334 340 44
3 341 337 342 44
3 335 334 336 44
3 347 346 348 45
3 347 348 352 45
3 364 363 347 45
3 365 364 347 45
3 362 365 347 45
3 354 350 349 45
3 354 351 350 45
3 354 352 351 45
3 354 349 353 45
3 354 347 352 45
3 354 362 347 45
3 360 359 354 45
3 358 354 359 45
3 358 362 354 45
3 357 362 358 45
3 356 360 354 45
3 361 362 357 45
3 355 356 354 45
3 369 366 367 46
3 369 367 368 46
3 373 370 371 47
3 373 371 372 47
3 377 374 375 48
3 377 375 376 48
3 381 378 379 49
3 381 379 380 49
3 385 382 383 50
3 385 383 384 50
3 389 386 387 51
3 389 387 388 51
3 393 390 391 52
3 393 391 392 52
3 397 394 395 53
3 397 395 396 53
3 405 398 399 54
3 405 399 400 54
3 406 400 401 54
3 406 405 400 54
3 407 401 402 54
3 407 406 401 54
3 404 402 403 54
3 404 407 402 54
3 411 408 409 55
3 411 409 410 55
3 419 412 413 56
3 419 413 414 56
3 420 414 415 56
3 420 419 414 56
3 421 415 416 56
3 421 420 415 56
3 418 416 417 56
3 418 421 416 56
3 425 422 423 57
3 425 423 424 57
3 429 426 427 58
3 429 427 428 58
3 437 430 431 59
3 437 431 432 59
3 438 432 433 59
3 438 437 432 59
3 439 433 434 59
3 439 438 433 59
3 436 434 435 59
3 436 439 434 59
3 443 440 441 60
3 443 441 442 60
3 447 444 445 61
3 447 445 446 61
3 451 448 449 62
3 451 449 450 62
3 464 465 461 63
3 463 464 461 63
3 456 461 460 63
3 462 463 461 63
3 457 461 456 63
3 452 457 458 63
3 452 458 459 63
3 452 459 455 63
3 452 462 461 63
3 452 461 457 63
3 454 452 455 63
3 467 468 469 63
3 467 469 470 63
3 467 470 466 63
3 453 466 462 63
3 453 462 452 63
3 453 467 466 63
3 471 467 453 63
3 477 471 453 63
3 474 471 477 63
3 474 473 471 63
3 472 471 473 63
3 475 474 477 63
3 476 475 477 63
3 490 487 491 64
3 489 487 490 64
3 482 486 487 64
3 488 487 489 64
3 483 482 487 64
3 478 484 483 64
3 478 485 484 64
3 478 481 485 64
3 478 487 488 64
3 478 483 487 64
3 480 481 478 64
3 493 495 494 64
3 493 496 495 64
3 493 492 496 64
3 479 488 492 64
3 479 478 488 64
3 479 492 493 64
3 497 479 493 64
3 503 479 497 64
3 500 503 497 64
3 500 497 499 64
3 498 499 497 64
3 501 503 500 64
3 502 503 501 64
